<svg xmlns="http://www.w3.org/2000/svg" viewBox="0 0 148.63 177.38">
  <path d="M130,82.73c5.69,9.05,20.21-1.4,16.5-11.63-3.45-9.55-9.07-11.67-18.49-10.19C113.65,63.16,109.52,96.63,100,92.31c-1.48-1,4.55-12.72,5.73-15,5.56-8.86,12-20.77,12-35.92C117.68,26,111.6,1.5,73.35,1.5c-22.51,0-42.63,13.18-42.63,40.31C30.72,67,47.66,75,50,89.64c0,1.08-.21,2.22-1,2.68-9.4,3.65-14.2-28-28.44-30.19-9.42-1.48-15,.64-18.49,10.19C-1.61,82.54,12.91,93,18.6,83.94,9.66,89.23,4,76.32,11.12,71c8.06-6,13.58,7.61,14.61,14.26C27,93.6,30.59,105,39.6,106.92c-7.28,7.75-16,15.86-19.37,21.25-9.83,15.7,2.89,25.89,14.66,29.76,9.58,3.15,22.27-7.76,12.25-15.26,2,10.85-8,10.22-13.14,7.28-7.17-4.11-6.73-10.14.43-17.79,23.62-25.22,27.29-6.38,20.95,15.06-4.48,15.13,2.23,31.05,24.24,22.67-32.26.62-9.6-37.79-7.54-41.13,4.3-7,9.52-4.86,13-.52,9.92,12.4,1.93,21.68,2,34.32.08,15.31,18.35,15.67,26,9.84-22,4.69-19.89-8.52-14-19.17,8.14-14.77,1.12-30.53,3.52-34.58,5.18-8.74,17.19-3.4,22.41,3.2,5.73,7.24,3.32,31.53-14.47,21.18,11.15,14.33,25.55-1.24,26.85-6.67,6-25.17-7.7-31.92-20.55-35.92,3.48-4.55,5.23-11.08,6-16.36,1-6.65,6.55-20.24,14.61-14.26C144.63,75.1,139,88,130,82.73Z" style="fill: #081e29; stroke: #fff; stroke-width: 3px"/>
</svg>
